<svg width="119" height="30" viewBox="0 0 625 132" fill="none" xmlns="http://www.w3.org/2000/svg">
    <path d="M271.711 2.68622L260.027 32.7969H212.291L205.356 50.476H248.968L237.346 80.0244H194.109L186.987 98.5781H235.597L224.038 128.814H143L191.548 2.68622H271.711Z" fill="black"/>
    <path d="M279.833 2.68622H374.429L362.308 33.8589H331.318L294.641 128.814H262.401L299.015 33.8589H267.837L279.771 2.68622H279.833Z" fill="black"/>
    <path d="M338 129.128L386.61 3H418.85L370.24 129.065H338V129.128Z" fill="black"/>
    <path d="M433.724 131.5C420.54 131.5 410.294 128.751 403.046 123.191C395.798 117.694 391.862 110.01 391.299 100.14L423.04 85.3969C424.227 95.8294 430.787 101.077 442.846 101.077C452.718 101.077 458.779 98.2033 461.028 92.456C462.59 88.5204 460.528 85.2095 454.842 82.5233C454.593 82.3983 450.594 80.8366 442.659 77.838C432.287 73.9648 424.977 68.9672 420.79 62.7202C416.479 56.2233 416.479 47.5399 420.665 36.6076C424.977 25.1131 432.349 16.1173 442.659 9.74536C453.031 3.24845 464.34 0 476.586 0C487.145 0 495.705 2.49881 502.328 7.49643C508.889 12.4941 513.012 19.6157 514.699 28.8613L484.021 43.6043C481.897 34.8584 476.461 30.423 467.714 30.423C460.153 30.423 455.28 33.1093 453.031 38.5442C451.718 41.4178 452.218 43.8541 454.593 45.8532C456.967 47.8522 461.903 50.2886 469.463 53.1622C475.024 55.2237 479.335 57.0978 482.334 58.847C485.333 60.5962 488.27 62.9701 491.081 65.9686C497.392 72.0907 498.017 81.8361 493.081 95.1422C488.457 106.887 480.96 115.945 470.588 122.192C460.216 128.439 447.97 131.562 433.786 131.562L433.724 131.5Z" fill="black"/>
    <path d="M529.695 2.68622H624.291L612.17 33.8589H581.179L544.565 128.814H512.325L549.001 33.8589H517.823L529.757 2.68622H529.695Z" fill="black"/>
    <path d="M36.9811 128.876H0.867126L48.915 2.9986H85.029L36.9811 128.876Z" fill="black"/>
    <path d="M80.7178 9.24563L124.017 122.629H101.274L57.9747 9.24563H80.7178ZM85.029 2.9986H48.915L96.9628 128.876H133.077L85.029 2.9986Z" fill="black"/>
    <path d="M133.077 128.876H96.9629L145.011 2.9986H181.125L133.077 128.876Z" fill="black"/>
</svg>